<svg width="70" height="84" viewBox="0 0 70 84" fill="none" xmlns="http://www.w3.org/2000/svg">
<path d="M0 10.5V84H59.5V73.5H70V0H10.5V10.5H0ZM56 80.5H3.5V14H10.5H43.75V26.25H56V73.5V80.5ZM47.25 16.4745L53.5255 22.75H47.25V16.4745ZM14 3.5H66.5V70H59.5V23.7755L46.2245 10.5H14V3.5Z" fill="#428262"/>
<path d="M49 33.25H10.5V36.75H49V33.25Z" fill="#428262"/>
<path d="M49 43.75H10.5V47.25H49V43.75Z" fill="#428262"/>
<path d="M49 54.25H10.5V57.75H49V54.25Z" fill="#428262"/>
<path d="M26.25 68.25H10.5V71.75H26.25V68.25Z" fill="#428262"/>
<path d="M49 68.25H33.25V71.75H49V68.25Z" fill="#428262"/>
<path d="M36.75 22.75H22.75V26.25H36.75V22.75Z" fill="#428262"/>
</svg>
