<svg width="34" height="34" viewBox="0 0 34 34" fill="none" xmlns="http://www.w3.org/2000/svg">
<mask id="mask0_134_65" style="mask-type:alpha" maskUnits="userSpaceOnUse" x="-1" y="0" width="35" height="35">
<path d="M6.51887 11.5649L10.2958 15.3695C10.5015 15.5766 10.617 15.8575 10.617 16.1504C10.617 16.4433 10.5015 16.7242 10.2958 16.9313L7.98493 19.2591L2.66736 13.9027L4.97827 11.5749C5.18216 11.3695 5.45817 11.2533 5.74653 11.2514C6.03489 11.2496 6.31237 11.3622 6.51887 11.5649V11.5649Z" stroke="black" stroke-width="2" stroke-linecap="round" stroke-linejoin="round"/>
<path d="M2.65221 13.8918C2.65221 13.8918 -2.85087 18.5856 6.22957 27.7323" stroke="black" stroke-width="2" stroke-linecap="round" stroke-linejoin="round"/>
<path d="M7.9867 19.2581C7.9867 19.2581 5.21056 21.1342 8.99173 24.9217" stroke="black" stroke-width="2" stroke-linecap="round" stroke-linejoin="round"/>
<path d="M19.9907 31.351L14.6433 25.9646L16.9542 23.6368C17.0553 23.531 17.1763 23.4466 17.3102 23.3885C17.444 23.3303 17.588 23.2997 17.7338 23.2983C17.8796 23.2969 18.0242 23.3248 18.1591 23.3803C18.294 23.4359 18.4166 23.518 18.5197 23.6218L22.2966 27.4264C22.4041 27.5291 22.4897 27.6528 22.5484 27.7898C22.6071 27.9269 22.6376 28.0745 22.638 28.2237C22.6385 28.373 22.6089 28.5208 22.5511 28.6582C22.4933 28.7956 22.4084 28.9198 22.3016 29.0233L19.9907 31.351Z" stroke="black" stroke-width="2" stroke-linecap="round" stroke-linejoin="round"/>
<path d="M19.9767 31.3357C19.9767 31.3357 15.317 36.879 6.23657 27.7322" stroke="black" stroke-width="2" stroke-linecap="round" stroke-linejoin="round"/>
<path d="M14.6423 25.9695C14.6423 25.9695 12.7799 28.7588 9.01978 24.95" stroke="black" stroke-width="2" stroke-linecap="round" stroke-linejoin="round"/>
<path d="M21.9517 1C15.8652 1 11.2407 5.0778 11.2407 10.1113C11.1912 11.2384 11.4226 12.36 11.9136 13.374C12.4046 14.3879 13.1397 15.262 14.052 15.9165C14.3611 17.3373 14.2908 18.8152 13.8481 20.1997C13.8084 20.326 13.8047 20.461 13.8374 20.5894C13.87 20.7177 13.9378 20.8343 14.033 20.9257C14.1282 21.0172 14.247 21.0799 14.3758 21.1068C14.5047 21.1336 14.6384 21.1235 14.7618 21.0775L20.3071 19.0952C20.8702 19.1795 21.4385 19.2245 22.0079 19.2298C28.1013 19.2298 33 15.1449 33 10.1113C33 5.0778 28.0451 1 21.9517 1Z" stroke="black" stroke-width="2" stroke-linecap="round" stroke-linejoin="round"/>
<path d="M20.2157 19.0952C18.9718 18.8517 17.7724 18.4171 16.6594 17.8068" stroke="black" stroke-width="2" stroke-linecap="round" stroke-linejoin="round"/>
<path d="M17.4396 11.6759C18.1228 11.6759 18.6766 11.118 18.6766 10.4299C18.6766 9.74175 18.1228 9.1839 17.4396 9.1839C16.7564 9.1839 16.2026 9.74175 16.2026 10.4299C16.2026 11.118 16.7564 11.6759 17.4396 11.6759Z" fill="black"/>
<path d="M22.296 11.6759C22.9792 11.6759 23.533 11.118 23.533 10.4299C23.533 9.74175 22.9792 9.1839 22.296 9.1839C21.6129 9.1839 21.0591 9.74175 21.0591 10.4299C21.0591 11.118 21.6129 11.6759 22.296 11.6759Z" fill="black"/>
<path d="M27.1596 11.6759C27.8427 11.6759 28.3965 11.118 28.3965 10.4299C28.3965 9.74175 27.8427 9.1839 27.1596 9.1839C26.4764 9.1839 25.9226 9.74175 25.9226 10.4299C25.9226 11.118 26.4764 11.6759 27.1596 11.6759Z" fill="black"/>
</mask>
<g mask="url(#mask0_134_65)">
<rect x="-6.49207" y="-3.74408" width="48.9866" height="48.0425" fill="white"/>
</g>
</svg>
