<svg width="46" height="46" viewBox="0 0 46 46" fill="none" xmlns="http://www.w3.org/2000/svg">
<path fill-rule="evenodd" clip-rule="evenodd" d="M23.1564 28.8713C20.0726 28.8713 17.5727 26.3461 17.5727 23.2311C17.5727 20.1162 20.0726 17.591 23.1564 17.591C26.2402 17.591 28.7401 20.1162 28.7401 23.2311C28.7401 26.3461 26.2402 28.8713 23.1564 28.8713ZM38.0464 8.19076C40.0937 8.19076 41.7688 9.8828 41.7688 11.9508V34.5114C41.7688 36.5794 40.0937 38.2715 38.0464 38.2715H8.26644C6.21907 38.2715 4.54395 36.5794 4.54395 34.5114V11.9508C4.54395 9.8828 6.21907 8.19076 8.26644 8.19076H14.1666L16.4559 5.65269C17.1632 4.88188 18.1683 4.43066 19.2106 4.43066H27.1022C28.1445 4.43066 29.1496 4.88188 29.8383 5.65269L32.1462 8.19076H38.0464ZM23.1564 32.6313C28.2934 32.6313 32.4626 28.42 32.4626 23.2311C32.4626 18.0422 28.2934 13.8309 23.1564 13.8309C18.0194 13.8309 13.8502 18.0422 13.8502 23.2311C13.8502 28.42 18.0194 32.6313 23.1564 32.6313Z" fill="#387B5C"/>
</svg>
