<svg width="23" height="22" viewBox="0 0 23 22" fill="none" xmlns="http://www.w3.org/2000/svg">
<path d="M7.15221 19.2609L1.5 21.0001L3.23914 15.3479L14.3957 4.19043L18.3088 8.10349L7.15221 19.2609Z" stroke="#387B5C" stroke-width="1.5" stroke-linecap="round" stroke-linejoin="round"/>
<path d="M14.3958 4.19019L17.0792 1.50669C17.4062 1.18214 17.8482 1 18.3088 1C18.7695 1 19.2115 1.18214 19.5384 1.50669L20.9923 2.96061C21.3184 3.28675 21.5015 3.72903 21.5015 4.19019C21.5015 4.65134 21.3184 5.09362 20.9923 5.41976L18.3088 8.10325" stroke="#387B5C" stroke-width="1.5" stroke-linecap="round" stroke-linejoin="round"/>
<path d="M16.3523 6.14697L6.28271 16.2175" stroke="#387B5C" stroke-width="1.5" stroke-linecap="round" stroke-linejoin="round"/>
<path d="M3.23926 15.3477L4.10883 16.2172H6.28275V18.3912L7.15232 19.2607" stroke="#387B5C" stroke-width="1.5" stroke-linecap="round" stroke-linejoin="round"/>
<path d="M2.36963 18.3911L4.10877 20.1303" stroke="#387B5C" stroke-width="1.5" stroke-linecap="round" stroke-linejoin="round"/>
<path d="M15.7002 2.88574L19.6133 6.79881" stroke="#387B5C" stroke-width="1.5" stroke-linecap="round" stroke-linejoin="round"/>
</svg>
