<svg width="42" height="52" viewBox="0 0 42 52" fill="none" xmlns="http://www.w3.org/2000/svg">
<path d="M25.7998 1.83325H6.5998C5.32677 1.83325 4.10587 2.33896 3.20569 3.23914C2.30552 4.13931 1.7998 5.36021 1.7998 6.63325V45.0333C1.7998 46.3063 2.30552 47.5272 3.20569 48.4274C4.10587 49.3275 5.32677 49.8333 6.5998 49.8333H35.3998C36.6728 49.8333 37.8937 49.3275 38.7939 48.4274C39.6941 47.5272 40.1998 46.3063 40.1998 45.0333V16.2333L25.7998 1.83325Z" stroke="black" stroke-width="3" stroke-linecap="round" stroke-linejoin="round"/>
<path d="M25.7998 1.83325V16.2333H40.1998" stroke="black" stroke-width="3" stroke-linecap="round" stroke-linejoin="round"/>
<path d="M30.5999 28.2333H11.3999" stroke="black" stroke-width="3" stroke-linecap="round" stroke-linejoin="round"/>
<path d="M30.5999 37.8334H11.3999" stroke="black" stroke-width="3" stroke-linecap="round" stroke-linejoin="round"/>
<path d="M16.1999 18.6333H13.7999H11.3999" stroke="black" stroke-width="3" stroke-linecap="round" stroke-linejoin="round"/>
</svg>
