<svg width="48" height="38" viewBox="0 0 48 38" fill="none" xmlns="http://www.w3.org/2000/svg">
<path d="M24.0001 7.82007L6.88111 21.6746C6.88111 21.6942 6.8761 21.7229 6.86609 21.7622C6.85629 21.8011 6.85107 21.8293 6.85107 21.8494V35.8786C6.85107 36.3851 7.03972 36.8241 7.4169 37.1938C7.79398 37.5636 8.24051 37.7497 8.75659 37.7497H20.1888V26.526H27.8114V37.7501H39.2436C39.7596 37.7501 40.2067 37.5644 40.5833 37.1938C40.9605 36.8245 41.1497 36.3852 41.1497 35.8786V21.8494C41.1497 21.7716 41.1389 21.7128 41.1197 21.6746L24.0001 7.82007Z" fill="white"/>
<path d="M47.6689 18.5177L41.1491 13.1983V1.27321C41.1491 1.00059 41.0598 0.776399 40.8807 0.600932C40.703 0.425671 40.4746 0.33804 40.1963 0.33804H34.48C34.202 0.33804 33.9738 0.425671 33.7949 0.600932C33.6165 0.776399 33.5273 1.0007 33.5273 1.27321V6.97258L26.263 1.00991C25.6285 0.503269 24.8742 0.25 24.0007 0.25C23.1274 0.25 22.3731 0.503269 21.738 1.00991L0.330835 18.5177C0.13239 18.6733 0.0236255 18.8828 0.0033951 19.1459C-0.016731 19.4088 0.0526154 19.6384 0.211643 19.8331L2.05751 21.996C2.21654 22.1713 2.42468 22.2785 2.68277 22.3177C2.92106 22.3373 3.15934 22.2689 3.39762 22.1131L24.0001 5.24812L44.6028 22.113C44.7619 22.249 44.9699 22.3169 45.228 22.3169H45.3175C45.5752 22.2784 45.7829 22.1705 45.9428 21.9956L47.7888 19.833C47.9475 19.6379 48.0171 19.4087 47.9965 19.1455C47.9761 18.8831 47.8669 18.6736 47.6689 18.5177Z" fill="white"/>
</svg>
