<svg width="50" height="65" viewBox="0 0 50 65" fill="none" xmlns="http://www.w3.org/2000/svg">
<path d="M33.2576 23.1554C32.514 22.4118 31.3082 22.4118 30.5645 23.1554C29.8209 23.8989 29.8209 25.1047 30.5645 25.8484L33.2576 28.5415C33.6294 28.9133 34.1168 29.0993 34.604 29.0993C35.0913 29.0993 35.5788 28.9133 35.9505 28.5415L41.3366 23.1554C42.0803 22.4118 42.0803 21.206 41.3366 20.4623C40.593 19.7185 39.3874 19.7187 38.6436 20.4623L34.6042 24.5018L33.2576 23.1554Z" fill="#183932"/>
<path d="M38.6438 30.1108L34.6042 34.1504L33.2576 32.8039C32.514 32.0603 31.3082 32.0603 30.5645 32.8039C29.8209 33.5475 29.8209 34.7533 30.5645 35.497L33.2576 38.19C33.6294 38.5619 34.1168 38.7478 34.604 38.7478C35.0913 38.7478 35.5788 38.5619 35.9505 38.19L41.3366 32.8039C42.0803 32.0603 42.0803 30.8545 41.3366 30.1108C40.5932 29.3669 39.3875 29.3672 38.6438 30.1108Z" fill="#183932"/>
<path d="M24.7559 22.5977H9.52148C8.4698 22.5977 7.61719 23.4503 7.61719 24.502C7.61719 25.5536 8.4698 26.4062 9.52148 26.4062H24.7559C25.8075 26.4062 26.6602 25.5536 26.6602 24.502C26.6602 23.4503 25.8075 22.5977 24.7559 22.5977Z" fill="#183932"/>
<path d="M24.7559 32.2461H9.52148C8.4698 32.2461 7.61719 33.0987 7.61719 34.1504C7.61719 35.2021 8.4698 36.0547 9.52148 36.0547H24.7559C25.8075 36.0547 26.6602 35.2021 26.6602 34.1504C26.6602 33.0987 25.8075 32.2461 24.7559 32.2461Z" fill="#183932"/>
<path d="M24.7559 41.8945H9.52148C8.4698 41.8945 7.61719 42.7471 7.61719 43.7988C7.61719 44.8505 8.4698 45.7031 9.52148 45.7031H24.7559C25.8075 45.7031 26.6602 44.8505 26.6602 43.7988C26.6602 42.7471 25.8075 41.8945 24.7559 41.8945Z" fill="#183932"/>
<path d="M24.7559 51.543H9.52148C8.4698 51.543 7.61719 52.3956 7.61719 53.4473C7.61719 54.4989 8.4698 55.3516 9.52148 55.3516H24.7559C25.8075 55.3516 26.6602 54.4989 26.6602 53.4473C26.6602 52.3956 25.8075 51.543 24.7559 51.543Z" fill="#183932"/>
<path d="M47.6074 7.61719H36.7777C36.06 6.09477 34.521 5.07812 32.7613 5.07812H31.0035L31.6815 2.36615C31.8237 1.7974 31.6959 1.1945 31.3351 0.732393C30.974 0.270156 30.4204 0 29.834 0H19.6777C19.0913 0 18.5377 0.270156 18.1768 0.732393C17.816 1.19463 17.6881 1.7974 17.8303 2.36615L18.5084 5.07812H16.7506C14.991 5.07812 13.4518 6.09477 12.7342 7.61719H1.9043C0.852617 7.61719 0 8.4698 0 9.52148V63.0957C0 64.1474 0.852617 65 1.9043 65H47.6074C48.6591 65 49.5117 64.1474 49.5117 63.0957V9.52148C49.5117 8.4698 48.6591 7.61719 47.6074 7.61719ZM16.7504 8.88672H20.9473C21.5337 8.88672 22.0873 8.61656 22.4482 8.15433C22.809 7.69209 22.9369 7.08932 22.7947 6.52057L22.1166 3.80859H27.395L26.7169 6.52057C26.5747 7.08932 26.7026 7.69222 27.0634 8.15433C27.4244 8.61656 27.9781 8.88672 28.5645 8.88672H32.7613C33.0728 8.88672 33.3361 9.10978 33.3874 9.41713L33.9337 12.6953H15.578L16.1244 9.41713C16.1756 9.10978 16.4389 8.88672 16.7504 8.88672ZM45.7031 61.1914H3.80859V11.4258H11.9285L11.4517 14.2865C11.3596 14.8387 11.5152 15.4033 11.8771 15.8304C12.239 16.2575 12.7703 16.5039 13.3301 16.5039H36.1816C36.7414 16.5039 37.2728 16.2576 37.6346 15.8304C37.9964 15.4032 38.1521 14.8385 38.06 14.2865L37.5832 11.4258H45.7031V61.1914Z" fill="#183932"/>
</svg>
