<svg width="56" height="67" viewBox="0 0 56 67" fill="none" xmlns="http://www.w3.org/2000/svg">
<path d="M55.755 15.6717C55.6017 15.3327 55.3758 15.0239 55.09 14.7627L39.5383 0.814945C39.2398 0.556683 38.8868 0.35424 38.5 0.219423C38.1312 0.0776345 37.7346 0.00304892 37.3333 1.97146e-05H3.11502C2.70552 -0.00136153 2.29976 0.0698495 1.92114 0.209548C1.54251 0.349247 1.19851 0.554671 0.908945 0.81398C0.619383 1.07329 0.389993 1.38136 0.233996 1.72042C0.0779986 2.05949 -0.00152037 2.42285 2.20147e-05 2.78957V64.0761C-0.00152037 64.4428 0.0779986 64.8062 0.233996 65.1452C0.389993 65.4843 0.619383 65.7924 0.908945 66.0517C1.19851 66.311 1.54251 66.5164 1.92114 66.6561C2.29976 66.7958 2.70552 66.867 3.11502 66.8656H52.885C53.2945 66.867 53.7002 66.7958 54.0789 66.6561C54.4575 66.5164 54.8015 66.311 55.0911 66.0517C55.3806 65.7924 55.61 65.4843 55.766 65.1452C55.922 64.8062 56.0015 64.4428 56 64.0761V16.7164C55.9966 16.3571 55.9133 16.0019 55.755 15.6717V15.6717ZM40.4483 9.50748L45.3833 13.9269H40.4483V9.50748ZM49.7817 61.297H6.21835V5.56867H34.2183V16.7164C34.2214 17.4554 34.5506 18.1634 35.1341 18.6859C35.7176 19.2084 36.5081 19.5032 37.3333 19.506H49.7817V61.297Z" fill="#183932"/>
<path d="M40.4482 33.4329H15.5515C14.7598 33.3895 14.0165 33.0772 13.4731 32.5598C12.9296 32.0424 12.6271 31.3589 12.6271 30.6486C12.6271 29.9383 12.9296 29.2547 13.4731 28.7374C14.0165 28.22 14.7598 27.9077 15.5515 27.8643H40.4482C41.2398 27.9077 41.9832 28.22 42.5266 28.7374C43.0701 29.2547 43.3726 29.9383 43.3726 30.6486C43.3726 31.3589 43.0701 32.0424 42.5266 32.5598C41.9832 33.0772 41.2398 33.3895 40.4482 33.4329Z" fill="#183932"/>
<path d="M24.8849 22.2851H15.5515C14.7598 22.2416 14.0165 21.9293 13.4731 21.412C12.9296 20.8946 12.6271 20.211 12.6271 19.5007C12.6271 18.7904 12.9296 18.1069 13.4731 17.5895C14.0165 17.0721 14.7598 16.7599 15.5515 16.7164H24.8849C25.3092 16.6931 25.7343 16.7479 26.1341 16.8773C26.5339 17.0066 26.8999 17.208 27.2096 17.4688C27.5193 17.7296 27.766 18.0445 27.9347 18.3939C28.1034 18.7434 28.1904 19.12 28.1904 19.5007C28.1904 19.8814 28.1034 20.2581 27.9347 20.6076C27.766 20.957 27.5193 21.2718 27.2096 21.5327C26.8999 21.7935 26.5339 21.9948 26.1341 22.1242C25.7343 22.2536 25.3092 22.3083 24.8849 22.2851Z" fill="#183932"/>
<path d="M40.4484 44.5806H15.5518C14.7256 44.5806 13.9333 44.2867 13.3491 43.7635C12.765 43.2404 12.4368 42.5308 12.4368 41.791C12.4368 41.0512 12.765 40.3416 13.3491 39.8185C13.9333 39.2954 14.7256 39.0015 15.5518 39.0015H40.4484C41.2746 39.0015 42.0669 39.2954 42.651 39.8185C43.2352 40.3416 43.5634 41.0512 43.5634 41.791C43.5634 42.5308 43.2352 43.2404 42.651 43.7635C42.0669 44.2867 41.2746 44.5806 40.4484 44.5806Z" fill="#183932"/>
<path d="M40.4482 55.7178H15.5515C14.7598 55.6744 14.0165 55.3621 13.4731 54.8447C12.9296 54.3273 12.6271 53.6438 12.6271 52.9335C12.6271 52.2232 12.9296 51.5397 13.4731 51.0223C14.0165 50.5049 14.7598 50.1926 15.5515 50.1492H40.4482C41.2398 50.1926 41.9832 50.5049 42.5266 51.0223C43.0701 51.5397 43.3726 52.2232 43.3726 52.9335C43.3726 53.6438 43.0701 54.3273 42.5266 54.8447C41.9832 55.3621 41.2398 55.6744 40.4482 55.7178Z" fill="#183932"/>
</svg>
