<svg width="54" height="68" viewBox="0 0 54 68" fill="none" xmlns="http://www.w3.org/2000/svg">
<path d="M49.8159 10.361L43.4605 4.00557C42.3519 2.89092 41.0333 2.00717 39.581 1.40545C38.1286 0.803736 36.5714 0.495995 34.9993 0.500039H12.6429C9.47091 0.503839 6.42996 1.76558 4.18704 4.00849C1.94413 6.25141 0.682388 9.29236 0.678589 12.4643V55.5357C0.682388 58.7077 1.94413 61.7486 4.18704 63.9916C6.42996 66.2345 9.47091 67.4962 12.6429 67.5H41.3571C44.5291 67.4962 47.5701 66.2345 49.813 63.9916C52.0559 61.7486 53.3176 58.7077 53.3214 55.5357V18.8221C53.3255 17.2501 53.0177 15.6928 52.416 14.2405C51.8143 12.7882 50.9305 11.4696 49.8159 10.361ZM46.4324 13.7445C46.7706 14.0846 47.0744 14.4573 47.3393 14.8572H41.3571C40.7225 14.8572 40.1139 14.6051 39.6651 14.1563C39.2164 13.7076 38.9643 13.0989 38.9643 12.4643V6.48218C39.3643 6.74783 39.737 7.05241 40.077 7.39146L46.4324 13.7445ZM41.3571 62.7143H12.6429C10.739 62.7143 8.9131 61.958 7.56685 60.6117C6.22061 59.2655 5.4643 57.4396 5.4643 55.5357V12.4643C5.4643 10.5604 6.22061 8.73455 7.56685 7.38831C8.9131 6.04206 10.739 5.28575 12.6429 5.28575H34.1786V12.4643C34.1786 14.3682 34.9349 16.1941 36.2811 17.5403C37.6274 18.8866 39.4533 19.6429 41.3571 19.6429H48.5357V55.5357C48.5357 57.4396 47.7794 59.2655 46.4332 60.6117C45.0869 61.958 43.261 62.7143 41.3571 62.7143Z" fill="#387B5C"/>
<path d="M15.0357 20.5792H24.6071C25.2418 20.5792 25.8504 20.4038 26.2991 20.0916C26.7479 19.7795 27 19.3561 27 18.9146C27 18.4731 26.7479 18.0497 26.2991 17.7375C25.8504 17.4254 25.2418 17.25 24.6071 17.25H15.0357C14.4011 17.25 13.7925 17.4254 13.3437 17.7375C12.895 18.0497 12.6429 18.4731 12.6429 18.9146C12.6429 19.3561 12.895 19.7795 13.3437 20.0916C13.7925 20.4038 14.4011 20.5792 15.0357 20.5792Z" fill="#387B5C"/>
<path d="M38.9643 26.8214H15.0357C14.4011 26.8214 13.7925 26.9968 13.3437 27.309C12.895 27.6211 12.6429 28.0445 12.6429 28.486C12.6429 28.9275 12.895 29.3509 13.3437 29.6631C13.7925 29.9752 14.4011 30.1506 15.0357 30.1506H38.9643C39.5989 30.1506 40.2075 29.9752 40.6563 29.6631C41.105 29.3509 41.3571 28.9275 41.3571 28.486C41.3571 28.0445 41.105 27.6211 40.6563 27.309C40.2075 26.9968 39.5989 26.8214 38.9643 26.8214Z" fill="#387B5C"/>
<path d="M38.9643 36.3928H15.0357C14.4011 36.3928 13.7925 36.5682 13.3437 36.8804C12.895 37.1926 12.6429 37.616 12.6429 38.0574C12.6429 38.4989 12.895 38.9223 13.3437 39.2345C13.7925 39.5467 14.4011 39.722 15.0357 39.722H38.9643C39.5989 39.722 40.2075 39.5467 40.6563 39.2345C41.105 38.9223 41.3571 38.4989 41.3571 38.0574C41.3571 37.616 41.105 37.1926 40.6563 36.8804C40.2075 36.5682 39.5989 36.3928 38.9643 36.3928Z" fill="#387B5C"/>
<path d="M34.1786 45.9643H15.0357C14.4011 45.9643 13.7925 46.1396 13.3437 46.4518C12.895 46.764 12.6429 47.1874 12.6429 47.6289C12.6429 48.0703 12.895 48.4937 13.3437 48.8059C13.7925 49.1181 14.4011 49.2934 15.0357 49.2934H34.1786C34.8132 49.2934 35.4218 49.1181 35.8706 48.8059C36.3193 48.4937 36.5714 48.0703 36.5714 47.6289C36.5714 47.1874 36.3193 46.764 35.8706 46.4518C35.4218 46.1396 34.8132 45.9643 34.1786 45.9643Z" fill="#387B5C"/>
</svg>
