<svg width="67" height="67" viewBox="0 0 67 67" fill="none" xmlns="http://www.w3.org/2000/svg">
<path d="M33.4996 36.3425C26.25 36.3425 20.3521 30.4445 20.3521 23.1949C20.3521 15.9453 26.25 10.0474 33.4996 10.0474C40.7492 10.0474 46.6472 15.9453 46.6472 23.1949C46.6472 30.4445 40.7492 36.3425 33.4996 36.3425Z" fill="#183932"/>
<path d="M57.1882 9.81184C50.8598 3.48479 42.4482 0 33.5 0C24.5518 0 16.1389 3.48479 9.81184 9.81184C3.48479 16.1389 0 24.5518 0 33.5C0 42.4482 3.48479 50.8611 9.81184 57.1882C16.1389 63.5152 24.5518 67 33.5 67C42.4482 67 50.8598 63.5152 57.1883 57.1882C63.5152 50.8611 67 42.4482 67 33.5C67 24.5518 63.5152 16.1389 57.1882 9.81184ZM9.04762 52.2613C5.04855 47.061 2.66691 40.5533 2.66691 33.5C2.66691 16.4988 16.4988 2.66691 33.5 2.66691C50.5012 2.66691 64.3318 16.4988 64.3318 33.5C64.3318 40.5559 61.9501 47.0662 57.9471 52.2679C56.9552 48.9494 54.4296 45.9866 50.5951 43.7213C45.9617 40.9837 39.862 39.4763 33.4211 39.4763C26.988 39.4763 20.9149 40.984 16.3204 43.724C12.5285 45.9853 10.0304 48.9427 9.04762 52.2613Z" fill="#183932"/>
</svg>
