<svg width="68" height="68" viewBox="0 0 68 68" fill="none" xmlns="http://www.w3.org/2000/svg">
<path d="M41.8501 58.5811H26.1496C24.0676 58.5811 22.0708 57.754 20.5986 56.2818C19.1264 54.8096 18.2993 52.8128 18.2993 50.7308V49.1608C18.2993 45.4131 19.7881 41.819 22.438 39.169C25.088 36.519 28.6821 35.0303 32.4298 35.0303H35.5699C39.3175 35.0303 42.9116 36.519 45.5616 39.169C48.2116 41.819 49.7003 45.4131 49.7003 49.1608V50.7308C49.7003 52.8128 48.8733 54.8096 47.4011 56.2818C45.9288 57.754 43.9321 58.5811 41.8501 58.5811ZM32.4298 38.1704C29.5149 38.1704 26.7195 39.3283 24.6584 41.3894C22.5973 43.4505 21.4394 46.2459 21.4394 49.1608V50.7308C21.4394 51.98 21.9357 53.1781 22.819 54.0614C23.7023 54.9447 24.9004 55.441 26.1496 55.441H41.8501C43.0993 55.441 44.2973 54.9447 45.1807 54.0614C46.064 53.1781 46.5602 51.98 46.5602 50.7308V49.1608C46.5602 46.2459 45.4023 43.4505 43.3412 41.3894C41.2801 39.3283 38.4847 38.1704 35.5699 38.1704H32.4298Z" fill="#387B5C"/>
<path d="M33.9998 33.4604C32.1367 33.4604 30.3153 32.9079 28.7662 31.8728C27.217 30.8377 26.0096 29.3665 25.2966 27.6451C24.5836 25.9238 24.397 24.0297 24.7605 22.2023C25.124 20.3749 26.0212 18.6964 27.3387 17.379C28.6561 16.0615 30.3347 15.1643 32.162 14.8008C33.9894 14.4373 35.8835 14.6239 37.6048 15.3369C39.3262 16.0499 40.7974 17.2573 41.8325 18.8065C42.8676 20.3556 43.4201 22.177 43.4201 24.0401C43.4201 26.5385 42.4276 28.9346 40.661 30.7013C38.8943 32.4679 36.4982 33.4604 33.9998 33.4604ZM33.9998 17.7599C32.7577 17.7599 31.5435 18.1282 30.5107 18.8183C29.478 19.5084 28.673 20.4892 28.1977 21.6368C27.7223 22.7843 27.598 24.0471 27.8403 25.2653C28.0826 26.4836 28.6808 27.6026 29.5591 28.4809C30.4374 29.3592 31.5564 29.9573 32.7746 30.1997C33.9929 30.442 35.2556 30.3176 36.4032 29.8423C37.5507 29.3669 38.5316 28.562 39.2216 27.5292C39.9117 26.4964 40.28 25.2822 40.28 24.0401C40.28 22.3745 39.6184 20.7771 38.4406 19.5993C37.2628 18.4216 35.6654 17.7599 33.9998 17.7599Z" fill="#387B5C"/>
<path d="M34 0.5C27.3743 0.5 20.8975 2.46474 15.3884 6.14577C9.87936 9.82679 5.58559 15.0588 3.05005 21.1801C0.514515 27.3014 -0.148897 34.0372 1.14371 40.5355C2.43631 47.0339 5.62688 53.003 10.3119 57.6881C14.997 62.3731 20.9661 65.5637 27.4645 66.8563C33.9629 68.1489 40.6986 67.4855 46.8199 64.95C52.9412 62.4144 58.1732 58.1206 61.8542 52.6116C65.5353 47.1026 67.5 40.6257 67.5 34C67.5 25.1152 63.9706 16.5944 57.6881 10.3119C51.4056 4.02945 42.8848 0.5 34 0.5ZM34 61.9167C28.4786 61.9167 23.0812 60.2794 18.4903 57.2118C13.8995 54.1443 10.3213 49.7843 8.20838 44.6832C6.09543 39.5821 5.54259 33.969 6.61976 28.5537C7.69693 23.1384 10.3557 18.1641 14.2599 14.2599C18.1642 10.3557 23.1384 7.69691 28.5537 6.61974C33.969 5.54257 39.5822 6.09542 44.6833 8.20836C49.7844 10.3213 54.1443 13.8995 57.2119 18.4903C60.2794 23.0812 61.9167 28.4786 61.9167 34C61.9167 41.404 58.9755 48.5047 53.7401 53.7401C48.5047 58.9754 41.404 61.9167 34 61.9167Z" fill="#387B5C"/>
</svg>
